<svg width="119.000000" height="32.000000" viewBox="0 0 119 32" fill="none" xmlns="http://www.w3.org/2000/svg" xmlns:xlink="http://www.w3.org/1999/xlink">
	<desc>
			Created with Pixso.
	</desc>
	<defs/>
	<rect id="Rectangle" rx="16.000000" width="119.000000" height="32.000000" fill="#FF3E79" fill-opacity="1.000000"/>
	<rect id="Rectangle" rx="16.000000" width="119.000000" height="32.000000" stroke="#979797" stroke-opacity="0" stroke-width="0.000000"/>
	<path id="Заказать" d="M24.61 15.34Q24.82 14.94 24.82 14.43Q24.82 14.07 24.7 13.76Q24.5 13.27 24.01 12.91Q23.2 12.31 21.75 12.31Q20.65 12.31 19.84 12.56Q19.04 12.81 18.38 13.24L19.17 14.46Q19.17 14.45 19.18 14.45Q19.68 14.14 20.25 13.95Q20.84 13.76 21.5 13.76Q22.28 13.76 22.67 14.02Q22.88 14.16 22.98 14.36Q23.06 14.52 23.06 14.72Q23.06 14.91 22.99 15.07Q22.93 15.21 22.83 15.32Q22.6 15.57 22.04 15.7Q21.47 15.84 20.45 15.84L19.73 15.84L19.73 17.25L20.54 17.25Q21.8 17.25 22.54 17.54Q23.06 17.73 23.22 18.09Q23.29 18.24 23.29 18.43Q23.29 18.72 23.17 18.95Q23.04 19.19 22.78 19.36Q22.27 19.69 21.12 19.69Q20.72 19.69 20.24 19.62Q20.01 19.59 19.79 19.54Q19.53 19.49 19.29 19.43Q18.82 19.3 18.45 19.12L18.45 20.65Q19 20.87 19.75 21Q20.5 21.12 21.47 21.12Q23.25 21.12 24.16 20.4Q24.66 20.02 24.89 19.51Q25.08 19.08 25.08 18.56Q25.08 18.1 24.9 17.72Q24.74 17.42 24.45 17.17Q23.83 16.64 22.65 16.52L22.65 16.48Q23.58 16.35 24.19 15.84Q24.2 15.83 24.21 15.82Q24.46 15.61 24.61 15.34ZM56.41 15.34Q56.62 14.94 56.62 14.43Q56.62 14.07 56.5 13.76Q56.3 13.27 55.81 12.91Q55 12.31 53.55 12.31Q52.45 12.31 51.64 12.56Q50.84 12.81 50.18 13.24L50.97 14.46Q50.97 14.45 50.98 14.45Q51.48 14.14 52.05 13.95Q52.64 13.76 53.3 13.76Q54.08 13.76 54.47 14.02Q54.68 14.16 54.78 14.36Q54.86 14.52 54.86 14.72Q54.86 14.91 54.79 15.07Q54.73 15.21 54.63 15.32Q54.4 15.57 53.84 15.7Q53.27 15.84 52.25 15.84L51.53 15.84L51.53 17.25L52.34 17.25Q53.6 17.25 54.34 17.54Q54.86 17.73 55.02 18.09Q55.09 18.24 55.09 18.43Q55.09 18.72 54.97 18.95Q54.84 19.19 54.58 19.36Q54.07 19.69 52.92 19.69Q52.52 19.69 52.04 19.62Q51.81 19.59 51.59 19.54Q51.33 19.49 51.09 19.43Q50.62 19.3 50.25 19.12L50.25 20.65Q50.8 20.87 51.55 21Q52.3 21.12 53.27 21.12Q55.05 21.12 55.96 20.4Q56.46 20.02 56.69 19.51Q56.88 19.08 56.88 18.56Q56.88 18.1 56.7 17.72Q56.54 17.42 56.25 17.17Q55.63 16.64 54.45 16.52L54.45 16.48Q55.38 16.35 55.99 15.84Q56 15.83 56.01 15.82Q56.26 15.61 56.41 15.34ZM31.15 18.96L31.78 21L33.73 21L30.7 12.39L28.47 12.39L25.45 21L27.41 21L28.03 18.96L31.15 18.96ZM47.2 18.96L47.82 21L49.77 21L46.74 12.39L44.52 12.39L41.54 20.86L38.36 16.54L41.48 12.43L39.55 12.43L36.47 16.58L36.47 12.43L34.66 12.43L34.66 21L36.47 21L36.47 16.65L39.58 21L43.45 21L44.08 18.96L47.2 18.96ZM62.95 18.96L63.58 21L65.53 21L62.5 12.39L60.27 12.39L57.25 21L59.21 21L59.83 18.96L62.95 18.96ZM67.11 21L68.92 21L68.92 13.94L71.25 13.94L71.25 12.43L64.78 12.43L64.78 13.94L67.11 13.94L67.11 21ZM72.42 12.43L72.42 21L74.92 21Q76.76 21 77.61 20.29Q77.87 20.08 78.05 19.81Q78.46 19.2 78.46 18.32Q78.46 17.75 78.24 17.27Q78.17 17.12 78.08 16.98L78.08 16.97Q77.71 16.39 76.94 16.05Q76.16 15.72 74.95 15.72L74.23 15.72L74.23 12.43L72.42 12.43ZM29.94 14.92Q30.04 15.24 30.09 15.44L30.72 17.43L28.49 17.43L29.1 15.44Q29.15 15.31 29.24 14.99Q29.33 14.67 29.43 14.32Q29.53 13.96 29.59 13.72Q29.65 13.96 29.75 14.29Q29.84 14.61 29.94 14.92ZM45.98 14.92Q46.08 15.24 46.14 15.44L46.76 17.43L44.53 17.43L45.14 15.44Q45.19 15.31 45.28 14.99Q45.37 14.67 45.47 14.32Q45.58 13.96 45.63 13.72Q45.7 13.96 45.79 14.29Q45.89 14.61 45.98 14.92ZM61.74 14.92Q61.84 15.24 61.89 15.44L62.52 17.43L60.29 17.43L60.9 15.44Q60.95 15.31 61.04 14.99Q61.13 14.67 61.23 14.32Q61.33 13.96 61.39 13.72Q61.45 13.96 61.55 14.29Q61.64 14.61 61.74 14.92ZM76.14 19.24Q75.67 19.51 74.84 19.51L74.23 19.51L74.23 17.2L74.7 17.2Q75.59 17.2 76.1 17.42Q76.28 17.49 76.39 17.62Q76.62 17.87 76.62 18.32Q76.62 18.77 76.4 19.04Q76.29 19.16 76.14 19.24Z" fill="#FFFFFF" fill-opacity="1.000000" fill-rule="evenodd"/>
	<rect id="back" x="87.000000" y="4.000000" rx="12.000000" width="24.000000" height="24.000000" fill="#FF3E79" fill-opacity="1.000000"/>
	<path id="dropdown" d="M99.8 16L96.79 13.22C96.36 12.83 96.36 12.16 96.78 11.76L96.92 11.63C97.3 11.27 97.89 11.27 98.28 11.63L102.2 15.26C102.63 15.66 102.63 16.33 102.2 16.73L98.34 20.3C97.92 20.69 97.27 20.69 96.85 20.3C96.39 19.86 96.39 19.13 96.86 18.7L99.8 16Z" fill="#FFFFFF" fill-opacity="1.000000" fill-rule="evenodd"/>
</svg>
